# xmcd
#
# Track frame offsets:
#	150
#	39117
#	91770
#	144720
#	199120
#
# Disc length: 3192 seconds
#
# Revision: 1
# Processed by: cddbd v1.5PL3 Copyright (c) Steve Scherf et al.
# Submitted via: CDex 1.50Beta5
#
DISCID=380c7605
DTITLE=堀江由衣 - ドラマCD ななか6/17 第3巻
DYEAR=2002
DGENRE=Anime
TTITLE0=“ななか”の“とっかえっこ” その1
TTITLE1=“ななか”の“とっかえっこ” その2
TTITLE2=“ななか”の“とっかえっこ” その3
TTITLE3=「まじかるドミ子、誕生!」(前半)
TTITLE4=「まじかるドミ子、誕生!」(後半)
EXTD=
EXTT0=
EXTT1=
EXTT2=
EXTT3=
EXTT4=
PLAYORDER=
